<?xml version="1.0" encoding="utf-8"?>
<!-- Svg Vector Icons : http://www.onlinewebfonts.com/icon -->
<!DOCTYPE svg PUBLIC "-//W3C//DTD SVG 1.1//EN" "http://www.w3.org/Graphics/SVG/1.1/DTD/svg11.dtd">
<svg version="1.1" xmlns="http://www.w3.org/2000/svg" xmlns:xlink="http://www.w3.org/1999/xlink" x="0px" y="0px" viewBox="0 0 1000 1000" enable-background="new 0 0 1000 1000" xml:space="preserve">
<metadata> Svg Vector Icons : http://www.onlinewebfonts.com/icon </metadata>
<g><path d="M761.9,536.1c0-123.8,103.2-185.7,103.2-185.7c-61.9-82.5-144.4-92.8-175.4-92.8C607.2,236.9,535,288.5,504,288.5c-41.3,0-103.2-41.3-165.1-41.3c-82.5,0-165.1,51.6-206.3,123.8C50.1,525.8,112,742.4,194.5,866.2C235.8,928.1,287.4,990,349.3,990c61.9,0,82.5-41.3,165.1-41.3c72.2,0,92.8,41.3,165.1,41.3c72.2,0,113.5-61.9,154.7-123.8c51.6-72.2,61.9-134.1,72.2-144.4C896,732.1,761.9,680.5,761.9,536.1z"/><path d="M689.7,10c-51.6,0-113.5,30.9-144.4,72.2c-30.9,41.3-61.9,92.8-51.6,154.7c51.6,0,113.5-30.9,144.4-72.2C669.1,123.5,700,61.6,689.7,10z"/></g>
</svg>