<?xml version="1.0" encoding="utf-8"?>
<!-- Svg Vector Icons : http://www.onlinewebfonts.com/icon -->
<!DOCTYPE svg PUBLIC "-//W3C//DTD SVG 1.1//EN" "http://www.w3.org/Graphics/SVG/1.1/DTD/svg11.dtd">
<svg version="1.1" xmlns="http://www.w3.org/2000/svg" xmlns:xlink="http://www.w3.org/1999/xlink" x="0px" y="0px" viewBox="0 0 1000 1000" enable-background="new 0 0 1000 1000" xml:space="preserve">
<metadata> Svg Vector Icons : http://www.onlinewebfonts.com/icon </metadata>
<g><path d="M234.4,700.3l216.5,33.9v-214H234.4V700.3z M268.1,553.9h149.1v140.9l-149.1-23.3V553.9z"/><path d="M951.5,309.4c-24.7-58.3-60-110.7-104.9-155.8c-45-45-97.3-80.4-155.6-105.1C630.6,22.9,566.5,9.9,500.4,9.9h-0.2c-66.3,0-130.6,12.9-191,38.5c-58.4,24.7-110.8,60-155.8,105c-45,45-80.3,97.5-104.9,156C23,370,10,434.4,10,500.8c0,65.9,12.9,129.9,38.5,190.2c24.7,58.2,60,110.6,105.1,155.5c45,45,97.4,80.3,155.7,105c60.4,25.6,124.5,38.5,190.5,38.5c0,0,0,0,0,0c66.2,0,130.3-13,190.8-38.5c58.4-24.7,110.8-60,155.8-105s80.4-97.4,105.1-155.8C977,630.4,990,566.2,990,500C990,433.9,977.1,369.8,951.5,309.4z M499.8,956.4c-121.6,0-236.1-47.5-322.4-133.7C91.1,736.5,43.6,622.2,43.7,500.8C43.8,248.7,248.6,43.6,500.2,43.6h0.2c251.4,0.1,456,204.9,455.9,456.4C956.2,751.7,751.4,956.4,499.8,956.4z"/><path d="M472.8,498.3h278.9V247.9l-278.9,40.4V498.3z M506.5,317.5L718,286.8v177.7H506.5V317.5z"/><path d="M472.8,729.9l278.9,40.4V519.9H472.8V729.9z M506.5,553.6H718v177.8l-211.5-30.6V553.6z"/><path d="M430.9,290.2c-1.5,0.1-3,0.3-4.7,0.5c-42.1,6.1-87.1,12.5-130.7,18.6c-15.6,2.2-31.1,4.4-46.2,6.5l-14.5,2.1l0,14.6c0,0,0,97.7,0,143.5v22.3h216.3V288.3l-18.5,1.8C432.1,290.1,431.5,290.2,430.9,290.2z M417.5,464.7H268.6c0-36.2,0-91.4,0-117.5c10.4-1.5,21-3,31.7-4.5c38.9-5.5,79.1-11.2,117.3-16.7L417.5,464.7L417.5,464.7z"/></g>
</svg>